<?xml version="1.0" encoding="UTF-8" standalone="no"?>
<!DOCTYPE svg PUBLIC "-//W3C//DTD SVG 1.1//EN" "http://www.w3.org/Graphics/SVG/1.1/DTD/svg11.dtd">
<!-- Created with Vectornator (http://vectornator.io/) -->
<svg height="100%" stroke-miterlimit="10" style="fill-rule:nonzero;clip-rule:evenodd;stroke-linecap:round;stroke-linejoin:round;" version="1.1" viewBox="0 0 680 125" width="100%" xml:space="preserve" xmlns="http://www.w3.org/2000/svg" xmlns:vectornator="http://vectornator.io" xmlns:xlink="http://www.w3.org/1999/xlink">
<defs/>
<g id="Layer-1" vectornator:layerName="Layer 1">
<g fill="#231f20" opacity="1" stroke="none" vectornator:layerName="tspan 1">
<path d="M22.6773 16.7097L15.2373 16.7097L25.3173 100.71L32.6373 100.71L31.4373 90.6297L40.3173 16.7097L38.7573 16.7097L30.8373 83.1897L30.5973 83.1897L22.6773 16.7097Z"/>
<path d="M46.3173 58.7097C46.3173 81.9897 66.2373 101.91 89.5173 101.91C112.797 101.91 132.837 81.9897 132.837 58.7097C132.837 35.4297 112.797 15.3897 89.5173 15.3897C66.2373 15.3897 46.3173 35.4297 46.3173 58.7097ZM55.9173 58.7097C55.9173 35.4297 66.2373 16.5897 89.5173 16.5897C112.797 16.5897 123.237 35.4297 123.237 58.7097C123.237 81.9897 112.797 100.71 89.5173 100.71C66.2373 100.71 55.9173 81.9897 55.9173 58.7097Z"/>
<path d="M149.637 16.7097L142.437 16.7097L142.437 100.71L166.437 100.71L166.437 99.5097L149.637 99.5097L149.637 16.7097Z"/>
<path d="M180.837 16.7097L173.637 16.7097L173.637 100.71L180.837 100.71L180.837 16.7097ZM181.557 46.7097C191.037 50.9097 196.557 58.8297 196.557 100.71L203.757 100.71C203.757 60.5097 189.597 48.6297 183.717 46.7097C189.597 41.1897 199.917 30.5097 199.917 16.7097L192.717 16.7097C192.717 28.5897 191.037 38.9097 181.557 46.7097Z"/>
<path d="M208.557 58.7097C208.557 81.9897 228.477 101.91 251.757 101.91C275.037 101.91 295.077 81.9897 295.077 58.7097C295.077 35.4297 275.037 15.3897 251.757 15.3897C228.477 15.3897 208.557 35.4297 208.557 58.7097ZM218.157 58.7097C218.157 35.4297 228.477 16.5897 251.757 16.5897C275.037 16.5897 285.477 35.4297 285.477 58.7097C285.477 81.9897 275.037 100.71 251.757 100.71C228.477 100.71 218.157 81.9897 218.157 58.7097Z"/>
<path d="M309.717 16.7097L302.277 16.7097L312.357 100.71L319.677 100.71L318.477 90.6297L327.357 16.7097L325.797 16.7097L317.877 83.1897L317.637 83.1897L309.717 16.7097Z"/>
<path d="M339.837 97.3497C339.837 100.23 341.757 102.03 344.517 102.03C347.397 102.03 349.197 100.23 349.197 97.3497C349.197 94.5897 347.397 92.6697 344.517 92.6697C341.757 92.6697 339.837 94.5897 339.837 97.3497Z"/>
<path d="M357.117 100.71L364.317 100.71C387.597 100.71 406.437 81.9897 406.437 58.7097C406.437 35.4297 387.597 16.7097 364.317 16.7097L357.117 16.7097L357.117 100.71ZM364.317 17.9097C387.597 17.9097 396.837 35.4297 396.837 58.7097C396.837 81.9897 387.597 99.5097 364.317 99.5097L364.317 17.9097Z"/>
<path d="M420.837 47.9097L428.037 47.9097L428.037 46.7097L420.837 46.7097L420.837 17.9097L435.237 17.9097L435.237 16.7097L413.637 16.7097L413.637 100.71L435.237 100.71L435.237 99.5097L420.837 99.5097L420.837 47.9097Z"/>
<path d="M499.917 71.9097C499.917 35.3097 455.517 46.8297 455.517 27.5097C455.517 19.9497 459.357 16.7097 467.517 16.7097C475.677 16.7097 479.517 19.9497 479.517 27.5097L486.717 27.5097C486.717 19.7097 477.477 15.5097 467.517 15.5097C457.557 15.5097 448.317 19.7097 448.317 27.5097C448.317 46.4697 491.517 33.7497 491.517 71.9097C491.517 96.7497 475.677 100.71 467.517 100.71C459.357 100.71 443.517 96.7497 443.517 71.9097L435.117 71.9097C435.117 97.4697 457.557 101.91 467.517 101.91C477.477 101.91 499.917 97.4697 499.917 71.9097Z"/>
<path d="M516.717 100.71L516.717 16.7097L509.517 16.7097L509.517 100.71L516.717 100.71Z"/>
<path d="M602.757 85.4697C594.837 94.9497 582.597 100.71 570.717 100.71C547.437 100.71 537.117 81.9897 537.117 58.7097C537.117 35.4297 547.437 16.5897 570.717 16.5897C589.917 16.5897 600.837 29.7897 603.597 47.1897L609.957 40.7097C603.237 26.4297 587.517 15.3897 570.717 15.3897C547.437 15.3897 527.517 35.4297 527.517 58.7097C527.517 81.9897 547.437 101.91 570.717 101.91C587.517 101.91 603.237 90.9897 609.957 76.7097L609.957 59.9097L584.397 59.9097L584.397 61.1097L602.757 61.1097L602.757 85.4697Z"/>
<path d="M643.917 16.7097L643.797 72.6297L643.557 72.6297L626.037 16.7097L618.357 16.7097L622.797 30.6297L622.797 100.71L623.997 100.71L623.997 35.4297L624.357 35.4297L645.117 100.71L645.117 16.7097L643.917 16.7097Z"/>
</g>
<path d="M6.85021 112.219L656.047 112.219L656.047 114.986L6.85021 114.986L6.85021 112.219Z" fill="#231f20" fill-rule="nonzero" opacity="1" stroke="none" vectornator:layerName="Rectangle 1"/>
</g>
</svg>
